<svg id="visual" viewBox="0 0 600 600" width="600" height="600" xmlns="http://www.w3.org/2000/svg" xmlns:xlink="http://www.w3.org/1999/xlink" version="1.1"><path d="M0 271L55 205L109 211L164 193L218 103L273 175L327 163L382 247L436 217L491 169L545 151L600 97L600 0L545 0L491 0L436 0L382 0L327 0L273 0L218 0L164 0L109 0L55 0L0 0Z" fill="#d5d5d5"></path><path d="M0 349L55 319L109 295L164 301L218 157L273 271L327 307L382 301L436 337L491 235L545 247L600 253L600 95L545 149L491 167L436 215L382 245L327 161L273 173L218 101L164 191L109 209L55 203L0 269Z" fill="#c2b6dd"></path><path d="M0 409L55 415L109 385L164 415L218 277L273 325L327 415L382 415L436 415L491 283L545 289L600 349L600 251L545 245L491 233L436 335L382 299L327 305L273 269L218 155L164 299L109 293L55 317L0 347Z" fill="#ac98e5"></path><path d="M0 517L55 511L109 529L164 517L218 535L273 505L327 547L382 505L436 505L491 505L545 523L600 565L600 347L545 287L491 281L436 413L382 413L327 413L273 323L218 275L164 413L109 383L55 413L0 407Z" fill="#927aec"></path><path d="M0 601L55 601L109 601L164 601L218 601L273 601L327 601L382 601L436 601L491 601L545 601L600 601L600 563L545 521L491 503L436 503L382 503L327 545L273 503L218 533L164 515L109 527L55 509L0 515Z" fill="#715df2"></path></svg>